# xmcd
#
# Track frame offsets: 
#        150
#        4675
#        26953
#        49008
#        63575
#        84255
#        104965
#        122415
#        139488
#        153945
#        175355
#
# Disc length: 2615 seconds
#
# Revision: 2
# Processed by: cddbd v1.5.1PL0 Copyright (c) Steve Scherf et al.
# Submitted via: ExactAudioCopy v0.95a5
#
DISCID=950a350b
DTITLE=友坂理惠 - 你与友坂理惠的约会
DYEAR=1997
DGENRE=
TTITLE0=カフェがKわって~Tu l'as embrasse?~
TTITLE1=エスカレ`ション
TTITLE2=2人
TTITLE3=ジェラシ`
TTITLE4=そんなの气にしない
TTITLE5=くしゃみ（アルバム?ヴァ`ジョン）
TTITLE6=私がついてるじゃない？
TTITLE7=梦の梦
TTITLE8=カフェがKわって~Je l'as embrasse?~
TTITLE9=恋をしたら海へ行こう（リミックス?ヴァ`ジョン）
TTITLE10=泣いちゃいそうよ
EXTD=
EXTT0=
EXTT1=
EXTT2=
EXTT3=
EXTT4=
EXTT5=
EXTT6=
EXTT7=
EXTT8=
EXTT9=
EXTT10=
PLAYORDER=
